REM DIRINDEX 1\2\6,1\2\7,1\2\8,1\2\9,1\3\10,1\3\11,1\4\12,1\4\13,1\4\14,1\5\15,1\5\16,1\5\17
REM DIRNAME folder01,folder02,folder03,folder04,folder05,folder06,folder07,folder08,folder09,folder10,folder11,folder12,folder13,folder14,folder15,folder16,folder17
TITLE ""
FILE "1400_2_sec08_0718_0734.mp3" MP3
  TRACK 01 AUDIO
    TITLE "0:"
    INDEX 01 00:00:00
  TRACK 02 AUDIO
    TITLE "13:cjc029_3032"
    INDEX 01 00:00:19
  TRACK 03 AUDIO
    TITLE "0:"
    INDEX 01 00:01:44
  TRACK 04 AUDIO
    TITLE "14:cjc029_3033"
    INDEX 01 00:01:50
  TRACK 05 AUDIO
    TITLE "0:"
    INDEX 01 00:03:10
  TRACK 06 AUDIO
    TITLE "13:cjc029_3034"
    INDEX 01 00:03:68
  TRACK 07 AUDIO
    TITLE "0:"
    INDEX 01 00:05:14
  TRACK 08 AUDIO
    TITLE "14:cjc029_3035"
    INDEX 01 00:05:18
  TRACK 09 AUDIO
    TITLE "0:"
    INDEX 01 00:06:31
  TRACK 10 AUDIO
    TITLE "13:cjc029_3036"
    INDEX 01 00:07:13
  TRACK 11 AUDIO
    TITLE "0:"
    INDEX 01 00:08:17
  TRACK 12 AUDIO
    TITLE "14:cjc029_3037"
    INDEX 01 00:08:26
  TRACK 13 AUDIO
    TITLE "0:"
    INDEX 01 00:09:26
  TRACK 14 AUDIO
    TITLE "13:cjc029_3038"
    INDEX 01 00:10:08
  TRACK 15 AUDIO
    TITLE "0:"
    INDEX 01 00:11:31
  TRACK 16 AUDIO
    TITLE "14:cjc029_3039"
    INDEX 01 00:11:39
  TRACK 17 AUDIO
    TITLE "0:"
    INDEX 01 00:14:31
  TRACK 18 AUDIO
    TITLE "13:cjc029_3040"
    INDEX 01 00:15:11
  TRACK 19 AUDIO
    TITLE "0:"
    INDEX 01 00:16:26
  TRACK 20 AUDIO
    TITLE "14:cjc029_3041"
    INDEX 01 00:16:30
  TRACK 21 AUDIO
    TITLE "0:"
    INDEX 01 00:18:23
  TRACK 22 AUDIO
    TITLE "13:cjc029_3042"
    INDEX 01 00:19:05
  TRACK 23 AUDIO
    TITLE "0:"
    INDEX 01 00:20:20
  TRACK 24 AUDIO
    TITLE "14:cjc029_3043"
    INDEX 01 00:20:26
  TRACK 25 AUDIO
    TITLE "0:"
    INDEX 01 00:25:19
  TRACK 26 AUDIO
    TITLE "13:cjc029_3044"
    INDEX 01 00:26:01
  TRACK 27 AUDIO
    TITLE "0:"
    INDEX 01 00:27:14
  TRACK 28 AUDIO
    TITLE "14:cjc029_3045"
    INDEX 01 00:27:20
  TRACK 29 AUDIO
    TITLE "0:"
    INDEX 01 00:29:29
  TRACK 30 AUDIO
    TITLE "13:cjc029_3046"
    INDEX 01 00:30:14
  TRACK 31 AUDIO
    TITLE "0:"
    INDEX 01 00:31:33
  TRACK 32 AUDIO
    TITLE "14:cjc029_3047"
    INDEX 01 00:31:37
  TRACK 33 AUDIO
    TITLE "0:"
    INDEX 01 00:34:43
  TRACK 34 AUDIO
    TITLE "13:cjc029_3048"
    INDEX 01 00:35:27
  TRACK 35 AUDIO
    TITLE "0:"
    INDEX 01 00:36:38
  TRACK 36 AUDIO
    TITLE "14:cjc029_3049"
    INDEX 01 00:36:42
  TRACK 37 AUDIO
    TITLE "0:"
    INDEX 01 00:39:17
  TRACK 38 AUDIO
    TITLE "13:cjc029_3050"
    INDEX 01 00:40:05
  TRACK 39 AUDIO
    TITLE "0:"
    INDEX 01 00:41:14
  TRACK 40 AUDIO
    TITLE "14:cjc029_3051"
    INDEX 01 00:41:20
  TRACK 41 AUDIO
    TITLE "0:"
    INDEX 01 00:42:47
  TRACK 42 AUDIO
    TITLE "13:cjc029_3052"
    INDEX 01 00:43:29
  TRACK 43 AUDIO
    TITLE "0:"
    INDEX 01 00:44:40
  TRACK 44 AUDIO
    TITLE "14:cjc029_3053"
    INDEX 01 00:44:48
  TRACK 45 AUDIO
    TITLE "0:"
    INDEX 01 00:48:61
  TRACK 46 AUDIO
    TITLE "13:cjc029_3054"
    INDEX 01 00:49:43
  TRACK 47 AUDIO
    TITLE "0:"
    INDEX 01 00:50:50
  TRACK 48 AUDIO
    TITLE "14:cjc029_3055"
    INDEX 01 00:50:56
  TRACK 49 AUDIO
    TITLE "0:"
    INDEX 01 00:52:02
  TRACK 50 AUDIO
    TITLE "13:cjc029_3056"
    INDEX 01 00:52:59
  TRACK 51 AUDIO
    TITLE "0:"
    INDEX 01 00:53:74
  TRACK 52 AUDIO
    TITLE "14:cjc029_3057"
    INDEX 01 00:54:05
  TRACK 53 AUDIO
    TITLE "0:"
    INDEX 01 00:55:28
  TRACK 54 AUDIO
    TITLE "13:cjc029_3058"
    INDEX 01 00:56:10
  TRACK 55 AUDIO
    TITLE "0:"
    INDEX 01 00:57:41
  TRACK 56 AUDIO
    TITLE "14:cjc029_3059"
    INDEX 01 00:57:45
  TRACK 57 AUDIO
    TITLE "0:"
    INDEX 01 01:00:29
  TRACK 58 AUDIO
    TITLE "13:cjc029_3060"
    INDEX 01 01:01:13
  TRACK 59 AUDIO
    TITLE "0:"
    INDEX 01 01:02:22
  TRACK 60 AUDIO
    TITLE "14:cjc029_3061"
    INDEX 01 01:02:26
  TRACK 61 AUDIO
    TITLE "0:"
    INDEX 01 01:05:56
  TRACK 62 AUDIO
    TITLE "13:cjc029_3062"
    INDEX 01 01:06:42
  TRACK 63 AUDIO
    TITLE "0:"
    INDEX 01 01:07:59
  TRACK 64 AUDIO
    TITLE "14:cjc029_3063"
    INDEX 01 01:07:64
  TRACK 65 AUDIO
    TITLE "0:"
    INDEX 01 01:09:01
  TRACK 66 AUDIO
    TITLE "13:cjc029_3064"
    INDEX 01 01:09:59
  TRACK 67 AUDIO
    TITLE "0:"
    INDEX 01 01:10:67
  TRACK 68 AUDIO
    TITLE "14:cjc029_3065"
    INDEX 01 01:10:73
  TRACK 69 AUDIO
    TITLE "0:"
    INDEX 01 01:11:68
